<?xml version="1.0" standalone="no"?>
<!DOCTYPE svg PUBLIC "-//W3C//DTD SVG 20010904//EN"
 "http://www.w3.org/TR/2001/REC-SVG-20010904/DTD/svg10.dtd">
<svg version="1.0" xmlns="http://www.w3.org/2000/svg"
 width="794.000000pt" height="596.000000pt" viewBox="0 0 794.000000 596.000000"
 preserveAspectRatio="xMidYMid meet">

<g transform="translate(0.000000,596.000000) scale(0.100000,-0.100000)"
fill="#ffffff" stroke="none">
<path d="M3460 5569 c-36 -4 -116 -23 -177 -42 -61 -20 -160 -45 -220 -57
-331 -66 -540 -142 -730 -265 -100 -65 -398 -352 -489 -471 -30 -40 -100 -159
-156 -265 -266 -512 -256 -486 -373 -958 -42 -167 -80 -313 -87 -324 -6 -11
-45 -57 -87 -101 -151 -161 -199 -323 -156 -525 60 -285 268 -545 626 -781
236 -156 392 -226 1944 -865 1055 -435 1225 -500 1378 -526 115 -19 379 -7
527 25 382 83 722 248 1019 494 329 274 481 527 481 803 0 227 -70 396 -247
594 -49 55 -217 231 -372 390 -156 160 -289 301 -296 315 -14 27 -23 102 -55
460 -30 330 -41 367 -164 574 -166 279 -317 476 -525 690 -404 413 -857 668
-1401 790 -196 44 -330 58 -440 45z m90 -144 c154 -25 333 -73 515 -137 212
-75 339 -135 480 -228 514 -339 897 -759 1178 -1293 26 -49 47 -97 47 -108 0
-10 -13 -25 -30 -34 l-29 -15 -39 67 c-22 38 -74 129 -117 203 -254 441 -536
758 -926 1042 -354 258 -671 390 -1029 427 -148 16 -586 33 -641 26 -29 -4
-49 -3 -49 3 0 5 66 20 148 34 176 31 353 35 492 13z m-423 -115 c436 -64 794
-202 1158 -445 427 -285 751 -629 1112 -1179 98 -149 121 -191 112 -202 -14
-17 -79 -58 -83 -53 -2 2 -48 78 -102 169 -267 451 -424 662 -656 885 -223
214 -440 367 -718 505 -460 229 -811 285 -1243 199 -106 -21 -204 -50 -360
-106 -54 -19 -101 -32 -104 -29 -13 13 94 108 165 144 245 128 422 155 719
112z m-182 -506 c319 -41 622 -156 954 -361 400 -247 706 -493 954 -768 139
-154 313 -388 338 -455 16 -42 28 -127 50 -355 15 -165 37 -397 49 -515 69
-723 80 -838 80 -866 l0 -30 -166 30 -166 30 6 35 c38 222 60 646 46 889 -29
505 -119 817 -310 1070 -93 123 -372 386 -615 578 -383 304 -789 509 -1163
590 -159 35 -459 45 -602 20 -186 -32 -322 -86 -467 -182 -75 -50 -136 -107
-278 -259 -44 -47 -45 -48 -29 -15 33 67 197 355 226 398 48 70 88 88 293 132
55 12 143 28 195 35 136 19 460 18 605 -1z m-1666 -1977 c84 -192 122 -251
231 -357 74 -73 129 -115 238 -183 78 -48 146 -85 151 -82 5 2 12 36 16 75 4
39 10 72 15 75 17 10 627 -257 652 -286 15 -18 15 -24 2 -61 -31 -89 -137
-354 -145 -362 -6 -7 -386 145 -529 213 l-35 16 3 83 c3 60 0 89 -11 105 -8
12 -65 53 -126 90 -285 175 -419 310 -515 519 -59 127 -62 148 -36 217 12 34
25 61 29 61 3 0 30 -56 60 -123z m4818 -262 c37 -14 71 -31 75 -38 4 -7 8 -74
8 -149 l0 -138 -65 0 c-36 0 -65 3 -66 8 0 4 -8 82 -18 175 -9 92 -13 167 -9
167 4 0 38 -11 75 -25z m-3295 -799 c284 -107 577 -196 797 -241 123 -26 428
-65 506 -65 51 0 68 -11 63 -41 -4 -28 17 -28 -253 2 -210 23 -313 40 -487 79
-244 56 -685 190 -700 213 -14 21 -8 77 7 77 2 0 32 -11 67 -24z"/>
</g>
</svg>
